# xmcd
#
# Track frame offsets: 
#        150
#        11120
#        29343
#        40573
#        55233
#        73140
#        87345
#        101903
#        114293
#        132985
#        146998
#        165808
#
# Disc length: 2475 seconds
#
# Revision: 4
# Processed by: cddbd v1.5.1PL0 Copyright (c) Steve Scherf et al.
# Submitted via: ExactAudioCopy v0.95a5
#
DISCID=9c09aa0c,a109a90c
DTITLE=Lyle Lovett - Lyle Lovett and His Large Band
DYEAR=1989
DGENRE=Country
TTITLE0=The Blues Walk
TTITLE1=Here I Am
TTITLE2=Cryin' Shame
TTITLE3=Good Intentions
TTITLE4=I Know You Know
TTITLE5=What Do You Do - The Glory Of Love
TTITLE6=I Married Her Just Because She Looks Like You
TTITLE7=Stand By Your Man
TTITLE8=Which Way Does That Old Pony Run
TTITLE9=Nobody Knows Me
TTITLE10=If You Were To Wake Up
TTITLE11=Once Is Enough
EXTD=YEAR: 1989
EXTT0=
EXTT1=
EXTT2=
EXTT3=
EXTT4=
EXTT5=
EXTT6=
EXTT7=
EXTT8=
EXTT9=
EXTT10=
EXTT11=
PLAYORDER=
